<?xml version="1.0" encoding="UTF-8"?>
<svg xmlns="http://www.w3.org/2000/svg" xmlns:xlink="http://www.w3.org/1999/xlink" viewBox="0 0 998.88 797.11">
  <defs>
    <style>
      .cls-1 {
        font-size: 11.96px;
      }

      .cls-1, .cls-2, .cls-3, .cls-4 {
        fill: #383579;
      }

      .cls-1, .cls-3 {
        font-family: Poppins-Bold, 'Poppins Bold';
        font-weight: 700;
      }

      .cls-5 {
        fill: url(#linear-gradient-2);
      }

      .cls-6 {
        filter: url(#drop-shadow-7);
      }

      .cls-7, .cls-8, .cls-9, .cls-10, .cls-11, .cls-12, .cls-13, .cls-14, .cls-15 {
        fill: #fff;
      }

      .cls-16 {
        letter-spacing: 0em;
      }

      .cls-2 {
        font-size: 9px;
      }

      .cls-2, .cls-4 {
        font-family: Poppins-Regular, 'Poppins Regular';
      }

      .cls-17 {
        letter-spacing: 0em;
      }

      .cls-3 {
        font-size: 12.18px;
      }

      .cls-18 {
        letter-spacing: .01em;
      }

      .cls-19 {
        fill: url(#linear-gradient-14);
      }

      .cls-20 {
        fill: url(#linear-gradient-6);
      }

      .cls-21 {
        isolation: isolate;
      }

      .cls-22 {
        letter-spacing: -.03em;
      }

      .cls-8 {
        filter: url(#drop-shadow-14);
      }

      .cls-9 {
        filter: url(#drop-shadow-4);
      }

      .cls-23 {
        filter: url(#drop-shadow-15);
      }

      .cls-24 {
        filter: url(#drop-shadow-3);
      }

      .cls-25 {
        mix-blend-mode: soft-light;
      }

      .cls-26 {
        filter: url(#drop-shadow-11);
      }

      .cls-27 {
        fill: url(#linear-gradient);
        filter: url(#drop-shadow-1);
      }

      .cls-28 {
        fill: url(#linear-gradient-10);
      }

      .cls-10 {
        filter: url(#drop-shadow-2);
      }

      .cls-29 {
        fill: url(#linear-gradient-5);
      }

      .cls-29, .cls-30, .cls-31, .cls-32, .cls-33, .cls-34, .cls-35 {
        stroke-miterlimit: 10;
        stroke-width: 3px;
      }

      .cls-29, .cls-31, .cls-32, .cls-33, .cls-34, .cls-35 {
        stroke: #fff;
      }

      .cls-11 {
        filter: url(#drop-shadow-8);
      }

      .cls-36 {
        letter-spacing: -.03em;
      }

      .cls-12 {
        font-family: Anton-Regular, 'Anton Regular';
        font-size: 15.4px;
        letter-spacing: 0em;
      }

      .cls-30 {
        fill: url(#linear-gradient-11);
        stroke: #fcfcfc;
      }

      .cls-37 {
        filter: url(#drop-shadow-5);
      }

      .cls-38 {
        letter-spacing: .03em;
      }

      .cls-31 {
        fill: url(#linear-gradient-7);
      }

      .cls-39 {
        letter-spacing: .01em;
      }

      .cls-40 {
        letter-spacing: 0em;
      }

      .cls-41 {
        letter-spacing: 0em;
      }

      .cls-42 {
        clip-path: url(#clippath);
      }

      .cls-43 {
        letter-spacing: 0em;
      }

      .cls-32 {
        fill: url(#linear-gradient-3);
      }

      .cls-44 {
        fill: none;
      }

      .cls-33 {
        fill: url(#linear-gradient-15);
      }

      .cls-34 {
        fill: url(#linear-gradient-9);
      }

      .cls-45 {
        letter-spacing: -.07em;
      }

      .cls-46 {
        letter-spacing: 0em;
      }

      .cls-47 {
        filter: url(#drop-shadow-9);
      }

      .cls-13 {
        filter: url(#drop-shadow-6);
      }

      .cls-48 {
        letter-spacing: 0em;
      }

      .cls-49 {
        letter-spacing: .01em;
      }

      .cls-4 {
        font-size: 8.83px;
      }

      .cls-50 {
        letter-spacing: .02em;
      }

      .cls-14 {
        filter: url(#drop-shadow-12);
      }

      .cls-51 {
        letter-spacing: .01em;
      }

      .cls-52 {
        filter: url(#drop-shadow-13);
      }

      .cls-15 {
        filter: url(#drop-shadow-10);
      }

      .cls-53 {
        letter-spacing: .01em;
      }

      .cls-35 {
        fill: url(#linear-gradient-13);
      }

      .cls-54 {
        letter-spacing: .01em;
      }

      .cls-55 {
        letter-spacing: .03em;
      }

      .cls-56 {
        fill: url(#linear-gradient-4);
      }

      .cls-57 {
        fill: url(#linear-gradient-8);
      }

      .cls-58 {
        fill: url(#linear-gradient-12);
      }

      .cls-59 {
        fill: #fcfcfc;
      }
    </style>
    <clipPath id="clippath">
      <rect class="cls-44" x="105.35" y="148.55" width="750" height="500" transform="translate(248.15 -180.81) rotate(28.48)"/>
    </clipPath>
    <linearGradient id="linear-gradient" x1="28.22" y1="303.34" x2="886.88" y2="303.34" gradientTransform="translate(250.63 -59.75) rotate(28.48)" gradientUnits="userSpaceOnUse">
      <stop offset="0" stop-color="#8e7aff"/>
      <stop offset="1" stop-color="#9e94ff"/>
    </linearGradient>
    <filter id="drop-shadow-1" filterUnits="userSpaceOnUse">
      <feOffset dx="-10" dy="13"/>
      <feGaussianBlur result="blur" stdDeviation="2.45"/>
      <feFlood flood-color="#3913a0" flood-opacity=".1"/>
      <feComposite in2="blur" operator="in"/>
      <feComposite in="SourceGraphic"/>
    </filter>
    <filter id="drop-shadow-2" filterUnits="userSpaceOnUse">
      <feOffset dx="-6.76" dy="5.41"/>
      <feGaussianBlur result="blur-2" stdDeviation="2.71"/>
      <feFlood flood-color="#3913a0" flood-opacity=".16"/>
      <feComposite in2="blur-2" operator="in"/>
      <feComposite in="SourceGraphic"/>
    </filter>
    <linearGradient id="linear-gradient-2" x1="758.38" y1="273.78" x2="790.22" y2="273.78" gradientUnits="userSpaceOnUse">
      <stop offset="0" stop-color="#7399f5"/>
      <stop offset="1" stop-color="#87adff"/>
    </linearGradient>
    <filter id="drop-shadow-3" filterUnits="userSpaceOnUse">
      <feOffset dx="-6.61" dy="5.29"/>
      <feGaussianBlur result="blur-3" stdDeviation="2.64"/>
      <feFlood flood-color="#3913a0" flood-opacity=".16"/>
      <feComposite in2="blur-3" operator="in"/>
      <feComposite in="SourceGraphic"/>
    </filter>
    <linearGradient id="linear-gradient-3" x1="708.84" y1="338.79" x2="740.07" y2="338.79" gradientTransform="translate(850.39 -450.99) rotate(74)" xlink:href="#linear-gradient-2"/>
    <filter id="drop-shadow-4" filterUnits="userSpaceOnUse">
      <feOffset dx="-6.76" dy="5.41"/>
      <feGaussianBlur result="blur-4" stdDeviation="2.71"/>
      <feFlood flood-color="#3913a0" flood-opacity=".16"/>
      <feComposite in2="blur-4" operator="in"/>
      <feComposite in="SourceGraphic"/>
    </filter>
    <linearGradient id="linear-gradient-4" x1="812.84" y1="477.3" x2="844.68" y2="477.3" gradientUnits="userSpaceOnUse">
      <stop offset="0" stop-color="#e4777f"/>
      <stop offset="1" stop-color="#f88b93"/>
    </linearGradient>
    <filter id="drop-shadow-5" filterUnits="userSpaceOnUse">
      <feOffset dx="-6.61" dy="5.29"/>
      <feGaussianBlur result="blur-5" stdDeviation="2.64"/>
      <feFlood flood-color="#3913a0" flood-opacity=".16"/>
      <feComposite in2="blur-5" operator="in"/>
      <feComposite in="SourceGraphic"/>
    </filter>
    <linearGradient id="linear-gradient-5" x1="636.62" y1="479.31" x2="667.85" y2="479.31" gradientTransform="translate(529.96 -320.82) rotate(45)" xlink:href="#linear-gradient-4"/>
    <filter id="drop-shadow-6" filterUnits="userSpaceOnUse">
      <feOffset dx="-6.76" dy="5.41"/>
      <feGaussianBlur result="blur-6" stdDeviation="2.71"/>
      <feFlood flood-color="#3913a0" flood-opacity=".16"/>
      <feComposite in2="blur-6" operator="in"/>
      <feComposite in="SourceGraphic"/>
    </filter>
    <linearGradient id="linear-gradient-6" x1="487.9" y1="376.29" x2="519.74" y2="376.29" gradientTransform="translate(156.44 232.75)" gradientUnits="userSpaceOnUse">
      <stop offset="0" stop-color="#e39e40"/>
      <stop offset="1" stop-color="#f7b254"/>
    </linearGradient>
    <filter id="drop-shadow-7" filterUnits="userSpaceOnUse">
      <feOffset dx="-6.61" dy="5.29"/>
      <feGaussianBlur result="blur-7" stdDeviation="2.64"/>
      <feFlood flood-color="#3913a0" flood-opacity=".16"/>
      <feComposite in2="blur-7" operator="in"/>
      <feComposite in="SourceGraphic"/>
    </filter>
    <linearGradient id="linear-gradient-7" x1="597.73" y1="543.92" x2="628.96" y2="543.92" gradientTransform="matrix(1, 0, 0, 1, 0, 0)" xlink:href="#linear-gradient-6"/>
    <filter id="drop-shadow-8" filterUnits="userSpaceOnUse">
      <feOffset dx="-6.76" dy="5.41"/>
      <feGaussianBlur result="blur-8" stdDeviation="2.71"/>
      <feFlood flood-color="#3913a0" flood-opacity=".16"/>
      <feComposite in2="blur-8" operator="in"/>
      <feComposite in="SourceGraphic"/>
    </filter>
    <linearGradient id="linear-gradient-8" x1="492.55" y1="300.49" x2="524.39" y2="300.49" gradientUnits="userSpaceOnUse">
      <stop offset="0" stop-color="#7ddebb"/>
      <stop offset="1" stop-color="#91f2cf"/>
    </linearGradient>
    <filter id="drop-shadow-9" filterUnits="userSpaceOnUse">
      <feOffset dx="-6.61" dy="5.29"/>
      <feGaussianBlur result="blur-9" stdDeviation="2.64"/>
      <feFlood flood-color="#3913a0" flood-opacity=".16"/>
      <feComposite in2="blur-9" operator="in"/>
      <feComposite in="SourceGraphic"/>
    </filter>
    <linearGradient id="linear-gradient-9" x1="442.86" y1="364.14" x2="474.09" y2="364.14" gradientTransform="translate(746.94 -145.35) rotate(81.06)" xlink:href="#linear-gradient-8"/>
    <filter id="drop-shadow-10" filterUnits="userSpaceOnUse">
      <feOffset dx="-6.76" dy="5.41"/>
      <feGaussianBlur result="blur-10" stdDeviation="2.71"/>
      <feFlood flood-color="#3913a0" flood-opacity=".16"/>
      <feComposite in2="blur-10" operator="in"/>
      <feComposite in="SourceGraphic"/>
    </filter>
    <linearGradient id="linear-gradient-10" x1="390.29" y1="387.76" x2="422.13" y2="387.76" gradientUnits="userSpaceOnUse">
      <stop offset="0" stop-color="#db8ded"/>
      <stop offset="1" stop-color="#efa1ff"/>
    </linearGradient>
    <filter id="drop-shadow-11" filterUnits="userSpaceOnUse">
      <feOffset dx="-6.61" dy="5.29"/>
      <feGaussianBlur result="blur-11" stdDeviation="2.64"/>
      <feFlood flood-color="#3913a0" flood-opacity=".16"/>
      <feComposite in2="blur-11" operator="in"/>
      <feComposite in="SourceGraphic"/>
    </filter>
    <linearGradient id="linear-gradient-11" x1="337.88" y1="454.5" x2="369.1" y2="454.5" xlink:href="#linear-gradient-10"/>
    <filter id="drop-shadow-12" filterUnits="userSpaceOnUse">
      <feOffset dx="-6.76" dy="5.41"/>
      <feGaussianBlur result="blur-12" stdDeviation="2.71"/>
      <feFlood flood-color="#3913a0" flood-opacity=".16"/>
      <feComposite in2="blur-12" operator="in"/>
      <feComposite in="SourceGraphic"/>
    </filter>
    <linearGradient id="linear-gradient-12" x1="524.16" y1="538.58" x2="556.01" y2="538.58" gradientUnits="userSpaceOnUse">
      <stop offset="0" stop-color="#83caf5"/>
      <stop offset="1" stop-color="#97deff"/>
    </linearGradient>
    <filter id="drop-shadow-13" filterUnits="userSpaceOnUse">
      <feOffset dx="-6.61" dy="5.29"/>
      <feGaussianBlur result="blur-13" stdDeviation="2.64"/>
      <feFlood flood-color="#3913a0" flood-opacity=".16"/>
      <feComposite in2="blur-13" operator="in"/>
      <feComposite in="SourceGraphic"/>
    </filter>
    <linearGradient id="linear-gradient-13" x1="471.97" y1="470.57" x2="503.2" y2="470.57" xlink:href="#linear-gradient-12"/>
    <filter id="drop-shadow-14" filterUnits="userSpaceOnUse">
      <feOffset dx="-6.76" dy="5.41"/>
      <feGaussianBlur result="blur-14" stdDeviation="2.71"/>
      <feFlood flood-color="#3913a0" flood-opacity=".16"/>
      <feComposite in2="blur-14" operator="in"/>
      <feComposite in="SourceGraphic"/>
    </filter>
    <linearGradient id="linear-gradient-14" x1="888.19" y1="487.03" x2="920.03" y2="487.03" gradientTransform="translate(-644.14 11.27)" xlink:href="#linear-gradient-6"/>
    <filter id="drop-shadow-15" filterUnits="userSpaceOnUse">
      <feOffset dx="-6.61" dy="5.29"/>
      <feGaussianBlur result="blur-15" stdDeviation="2.64"/>
      <feFlood flood-color="#3913a0" flood-opacity=".16"/>
      <feComposite in2="blur-15" operator="in"/>
      <feComposite in="SourceGraphic"/>
    </filter>
    <linearGradient id="linear-gradient-15" x1="188.99" y1="432.76" x2="220.22" y2="432.76" gradientTransform="matrix(1, 0, 0, 1, 0, 0)" xlink:href="#linear-gradient-6"/>
  </defs>
  <g class="cls-21">
    <g id="OBJECTS">
      <g class="cls-42">
        <g>
          <path class="cls-27" d="m29.72,470.47l-12.23-41.22,104.72-31.07c26.59-7.89,54.6-4.95,78.95,8.26.21.12.43.23.64.35,24.5,13.51,42.17,35.78,49.77,62.7,3.13,11.1,10.42,20.28,20.52,25.85.09.05.18.1.26.14,10.04,5.45,21.59,6.66,32.55,3.4,22.15-6.57,35.19-30.04,29.08-52.31l-9.18-33.47c-12.64-43.07,12.03-88.44,55.09-101.21,21.09-6.26,43.29-3.89,62.59,6.76,19.27,10.61,33.17,28.12,39.15,49.29,10.52,37.25,24.25,85.8,35.56,125.78,8.43,29.81,39.6,47.39,69.47,39.19l1.97-.54c15.63-4.29,28.54-14.4,36.35-28.46,7.74-13.94,9.49-30.05,4.94-45.35l-11.08-37.2c-6.28-21.11-3.97-43.4,6.53-62.76,10.49-19.36,27.9-33.48,49.01-39.74l3.33-.99c21.25-6.3,43.59-4.05,62.9,6.33.09.05.18.1.27.14,19.19,10.41,33.17,27.67,39.38,48.64l.62,2.08c4.77,16.11,15.52,29.39,30.28,37.4h.02c14.76,8.01,31.74,9.79,47.83,5.02l127.64-37.86,12.23,41.22-127.64,37.86c-27.1,8.04-55.71,5.04-80.56-8.43l-.03-.02c-24.86-13.49-42.97-35.86-51-62.98l-.62-2.08c-2.94-9.94-9.56-18.12-18.65-23.05-.04-.02-.08-.04-.13-.07-9.25-4.98-20.01-6.03-30.31-2.98l-3.33.99c-10.1,3-18.42,9.74-23.44,19-5.02,9.26-6.12,19.92-3.12,30.01l11.07,37.19c7.88,26.47,4.85,54.35-8.55,78.49-13.46,24.26-35.68,41.68-62.57,49.05l-1.97.54c-25.52,7-52.27,3.67-75.32-9.3-23.05-13-39.71-34.19-46.91-59.66-11.31-39.99-25.04-88.54-35.56-125.79-2.83-10.01-9.41-18.3-18.52-23.32-9.13-5-19.63-6.16-29.61-3.2-9.89,2.93-18.04,9.54-22.95,18.6-4.92,9.06-6.01,19.5-3.08,29.39l.12.43,9.23,33.66c5.97,21.77,3.22,44.63-7.75,64.36-10.97,19.73-28.93,34.13-50.57,40.55-21.98,6.52-45.14,4.09-65.27-6.83-.18-.1-.35-.19-.53-.29-20.26-11.17-34.87-29.58-41.14-51.84-4.44-15.77-14.79-28.81-29.14-36.71-.12-.07-.25-.14-.38-.2-14.26-7.73-30.66-9.45-46.22-4.83l-104.72,31.07Z"/>
          <g class="cls-25">
            <rect class="cls-7" x="23.48" y="447.5" width="6" height="3" transform="translate(-126.61 26.07) rotate(-16.52)"/>
            <path class="cls-7" d="m41.21,446.2l-.85-2.88,11.43-3.39.85,2.88-11.43,3.39Zm22.86-6.78l-.85-2.88,11.43-3.39.85,2.88-11.43,3.39Zm22.86-6.78l-.85-2.88,11.43-3.39.85,2.88-11.43,3.39Zm174.43,83.07c-3.19-1.73-6.26-3.74-9.12-5.97l1.84-2.37c3.05,2.38,6.35,4.49,9.79,6.28l-1.38,2.66c-.38-.2-.76-.4-1.13-.6Zm12.42,5.18l.87-2.87c3.72,1.12,7.55,1.9,11.4,2.31l-.32,2.98c-4.03-.43-8.05-1.25-11.94-2.42Zm-30.42-19.5c-2.69-3.05-5.1-6.36-7.18-9.85l2.58-1.53c1.98,3.33,4.28,6.49,6.85,9.4l-2.25,1.98Zm-133.57-75.53l-.85-2.88,11.43-3.39.85,2.88-11.43,3.39Zm188.12,97.61l-.24-2.99c3.85-.31,7.7-.98,11.46-2l.79,2.89c-3.93,1.07-7.97,1.77-12,2.1Zm-66.95-42.95c-.57-1.56-1.09-3.18-1.55-4.79-.62-2.21-1.34-4.41-2.14-6.53l2.81-1.05c.83,2.21,1.57,4.49,2.22,6.77.43,1.54.93,3.08,1.48,4.57l-2.82,1.03Zm-98.35-61.34l-.71-2.91c3.93-.96,7.96-1.64,11.96-2.02l.28,2.99c-3.86.37-7.74,1.02-11.53,1.95Zm188.72,97.93l-1.3-2.7c3.49-1.68,6.84-3.7,9.96-6l1.78,2.41c-3.27,2.41-6.78,4.53-10.44,6.29Zm-98.94-58.54c-1.88-3.41-4.02-6.7-6.38-9.8l2.39-1.82c2.44,3.21,4.67,6.63,6.62,10.17l-2.63,1.45Zm-66.55-41.6l.15-3c4.03.21,8.08.71,12.04,1.5l-.59,2.94c-3.82-.76-7.72-1.25-11.61-1.45Zm52.43,23.03c-2.78-2.72-5.78-5.26-8.93-7.56l1.77-2.42c3.26,2.38,6.38,5.02,9.26,7.84l-2.1,2.14Zm-29.56-18.46l1.01-2.83c3.8,1.35,7.53,2.99,11.1,4.88l-1.4,2.65c-3.44-1.82-7.05-3.4-10.71-4.71Zm162.14,81.17l-2.2-2.04c2.63-2.83,5.02-5.94,7.1-9.21l2.54,1.6c-2.17,3.43-4.67,6.68-7.43,9.65Zm10.18-21.62c1.44-3.6,2.54-7.36,3.29-11.16l2.94.58c-.78,3.98-1.94,7.91-3.45,11.69l-2.79-1.11Zm4.46-22.72c.03-3.87-.31-7.76-1-11.58l2.95-.53c.72,4,1.08,8.09,1.05,12.14l-3-.02Zm178.21,89.94c-1.79-.97-3.56-2.02-5.28-3.13l1.63-2.52c3.27,2.11,6.72,3.99,10.27,5.58l-1.23,2.74c-1.82-.82-3.64-1.72-5.39-2.67Zm16.81,6.78l.8-2.89c3.75,1.04,7.61,1.79,11.46,2.24l-.35,2.98c-4.01-.47-8.01-1.25-11.92-2.33Zm-31.75-17.26c-3.02-2.68-5.86-5.62-8.44-8.73l2.31-1.91c2.48,2.99,5.21,5.82,8.12,8.4l-1.99,2.24Zm55.8,20.07l-.11-3c3.87-.14,7.78-.59,11.61-1.33l.57,2.95c-3.98.76-8.04,1.23-12.06,1.38Zm-71.25-38.71c-2.07-3.46-3.89-7.12-5.41-10.87l2.78-1.13c1.46,3.61,3.21,7.13,5.2,10.46l-2.58,1.54Zm-151.69-83.83l-3.15-11.5,2.89-.79,3.15,11.5-2.89.79Zm246.71,118.12l-.92-2.86c3.72-1.2,7.36-2.68,10.84-4.39l1.33,2.69c-3.6,1.78-7.39,3.31-11.24,4.56Zm-104.18-56.64l-3.25-11.48,2.89-.82,3.25,11.48-2.89.82Zm-148.84-84.47l-1.3-4.74c-.67-2.26-1.22-4.62-1.64-6.96l2.96-.52c.39,2.23.92,4.47,1.56,6.66l1.31,4.77-2.89.79Zm142.35,61.52l-3.25-11.48,2.89-.82,3.25,11.48-2.89.82Zm132.37,68.89l-1.71-2.47c3.19-2.21,6.25-4.69,9.09-7.35l2.05,2.19c-2.94,2.76-6.12,5.33-9.44,7.63Zm-278.55-154.27c.11-4.06.62-8.14,1.54-12.11l2.92.67c-.87,3.77-1.36,7.65-1.46,11.51l-3-.08Zm139.68,62.42l-3.25-11.48,2.89-.82,3.25,11.48-2.89.82Zm156.5,75.28l-2.35-1.86c2.41-3.05,4.62-6.31,6.55-9.68l2.6,1.49c-2.01,3.5-4.3,6.88-6.8,10.05Zm-290.76-161.37c.62-1.37,1.29-2.73,2.01-4.06,1.22-2.24,2.59-4.44,4.07-6.51l2.44,1.75c-1.41,1.98-2.72,4.06-3.88,6.2-.68,1.26-1.33,2.56-1.92,3.87l-2.73-1.23Zm127.76,63.13l-3.24-11.47,2.89-.82,3.24,11.47-2.89.82Zm172.26,76.15c1.42-3.62,2.58-7.38,3.45-11.17l2.92.67c-.9,3.93-2.11,7.83-3.59,11.59l-2.79-1.1Zm-178.75-99.1l-3.24-11.48,2.89-.82,3.24,11.48-2.89.82Zm-105.09-57.74l-2.05-2.19c2.98-2.78,6.24-5.27,9.7-7.4l1.57,2.56c-3.29,2.03-6.4,4.39-9.23,7.04Zm98.6,34.78l-2.22-7.85c-.33-1.18-.71-2.36-1.11-3.51l2.83-.99c.42,1.2.81,2.44,1.16,3.68l2.22,7.85-2.89.82Zm190.45,99.34c.3-3.88.3-7.81.02-11.69l2.99-.22c.3,4.03.29,8.11-.02,12.14l-2.99-.23Zm-269.39-146.22l-1.04-2.82c1.25-.46,2.54-.89,3.84-1.27,2.62-.78,5.3-1.38,7.97-1.81l.47,2.96c-2.54.4-5.1.98-7.58,1.72-1.23.37-2.46.77-3.65,1.21Zm70.71,25.01c-1.97-3.33-4.29-6.47-6.89-9.34l2.22-2.01c2.73,3.02,5.17,6.32,7.24,9.82l-2.58,1.53Zm-47.89-28.61l.13-3c4.06.17,8.12.76,12.08,1.73l-.72,2.91c-3.76-.93-7.63-1.48-11.49-1.65Zm32.4,11.48c-3.1-2.29-6.47-4.31-9.97-5.95l1.28-2.71c3.68,1.73,7.22,3.84,10.48,6.26l-1.78,2.41Zm212.47,115.09c-.4-1.76-.86-3.54-1.38-5.27l-1.81-6.08,2.87-.88,1.82,6.11c.54,1.8,1.02,3.64,1.43,5.47l-2.93.66Zm-6.6-22.81l-3.4-11.43,2.88-.86,3.4,11.43-2.88.86Zm-6.74-22.96c-.95-3.97-1.51-8.03-1.67-12.08l3-.12c.15,3.85.69,7.72,1.59,11.5l-2.92.7Zm-.95-24.26c.64-4.01,1.68-7.98,3.09-11.8l2.81,1.04c-1.34,3.64-2.33,7.42-2.94,11.23l-2.96-.47Zm10.96-21.22l-2.56-1.56c2.12-3.47,4.59-6.75,7.34-9.74l2.21,2.03c-2.62,2.85-4.97,5.97-6.99,9.27Zm155.21,66.94l1.36-2.68c3.47,1.76,7.1,3.29,10.78,4.55l-.97,2.84c-3.82-1.3-7.57-2.88-11.17-4.71Zm-10.4-6.23c-3.31-2.31-6.48-4.88-9.43-7.63l2.05-2.19c2.84,2.65,5.9,5.13,9.1,7.36l-1.72,2.46Zm33.3,14.03l.56-2.95c3.83.72,7.74,1.18,11.62,1.35l-.13,3c-4.03-.18-8.08-.65-12.04-1.4Zm-50.99-30.54c-2.53-3.14-4.86-6.49-6.92-9.96l2.58-1.53c1.99,3.35,4.23,6.58,6.67,9.61l-2.34,1.88Zm-111.47-61.21l-1.77-2.42c3.28-2.4,6.82-4.48,10.51-6.19l1.26,2.72c-3.51,1.63-6.88,3.61-10,5.89Zm186.62,92.83l-.29-2.99c3.86-.38,7.75-1.04,11.54-1.96l.71,2.92c-3.93.96-7.95,1.64-11.95,2.03Zm-87.5-52.42c-1.17-2.81-2.2-5.73-3.08-8.68l-.82-2.74,2.87-.88.82,2.77c.84,2.84,1.84,5.66,2.97,8.38l-2.77,1.15Zm-78.1-50.22l-.85-2.88.46-.14c3.76-1.12,7.62-1.89,11.48-2.3l.32,2.98c-3.67.39-7.35,1.13-10.94,2.2l-.46.14Zm189.09,97.3l-.85-2.88,11.43-3.39.85,2.88-11.43,3.39Zm-119.37-69.2c-1.84-3.41-4.03-6.64-6.51-9.61l2.3-1.92c2.61,3.12,4.91,6.52,6.85,10.1l-2.64,1.43Zm-46.71-30.54l.26-2.99c4.05.36,8.09,1.11,11.99,2.25l-.84,2.88c-3.71-1.08-7.55-1.8-11.41-2.14Zm31.91,12.81c-2.74-2.2-5.71-4.17-8.81-5.86-.3-.16-.61-.33-.91-.48l1.38-2.66c.32.17.64.34.96.51,3.26,1.77,6.37,3.84,9.26,6.16l-1.88,2.34Zm157.03,80.16l-.85-2.88,11.43-3.39.85,2.88-11.43,3.39Zm22.86-6.78l-.85-2.88,11.43-3.39.85,2.88-11.43,3.39Zm22.86-6.78l-.85-2.88,11.43-3.39.85,2.88-11.43,3.39Zm22.86-6.78l-.85-2.88,11.43-3.39.85,2.88-11.43,3.39Z"/>
            <rect class="cls-7" x="986.89" y="399.6" width="6" height="3" transform="translate(-73.2 298.1) rotate(-16.52)"/>
          </g>
        </g>
      </g>
      <g>
        <g>
          <g>
            <path class="cls-10" d="m643.08,253.3v41.55c0,2.21,1.79,4,4,4h56.78c.97,0,1.91.35,2.64,1l15.31,13.45c1.51,1.33,3.77,1.33,5.28,0l15.3-13.45c.73-.64,1.67-1,2.64-1h56.78c2.21,0,4-1.79,4-4v-41.55c0-2.21-1.79-4-4-4h-154.74c-2.21,0-4,1.79-4,4Z"/>
            <g>
              <g>
                <rect class="cls-5" x="758.38" y="257.86" width="31.84" height="31.84" rx="5.29" ry="5.29"/>
                <path class="cls-7" d="m782.33,278.5c-.87,0-1.62.56-1.89,1.34h-1.45v-5.44h1.34c2.21,0,4.01-1.8,4.01-4.01s-1.75-3.91-3.81-4.01c-.77-1.62-2.41-2.68-4.21-2.68-.16,0-.31.01-.45.03-.98-.88-2.24-1.37-3.56-1.37-2.51,0-4.67,1.78-5.2,4.2-1.66.51-2.82,2.05-2.82,3.83,0,2.21,1.8,4.01,4.01,4.01h1.34v5.44h-1.45c-.28-.78-1.02-1.34-1.89-1.34-1.11,0-2.01.9-2.01,2.01s.9,2.01,2.01,2.01c.87,0,1.62-.56,1.89-1.34h2.12c.37,0,.67-.3.67-.67v-6.11h2.68v6.89c-.78.28-1.34,1.02-1.34,1.89,0,1.11.9,2.01,2.01,2.01s2.01-.9,2.01-2.01c0-.87-.56-1.62-1.34-1.89v-6.89h2.68v6.11c0,.37.3.67.67.67h2.12c.28.78,1.02,1.34,1.89,1.34,1.11,0,2.01-.9,2.01-2.01s-.9-2.01-2.01-2.01Zm-16.06,2.68c-.37,0-.67-.3-.67-.67s.3-.67.67-.67.67.3.67.67-.3.67-.67.67Zm8.03,2.68c-.37,0-.67-.3-.67-.67s.3-.67.67-.67.67.3.67.67-.3.67-.67.67Zm-8.7-13.47c0-1.29.92-2.39,2.19-2.63.02,0,.05-.01.07-.02.49-.08,1-.02,1.46.18.34.14.73-.02.88-.36.14-.34-.02-.73-.36-.88-.42-.18-.86-.28-1.31-.31.55-1.57,2.05-2.68,3.76-2.68,1.08,0,2.1.43,2.86,1.21.15.16.37.23.59.19.17-.03.37-.06.56-.06,1.14,0,2.18.59,2.79,1.53-.11.04-.23.08-.34.12-.34.14-.5.54-.36.88.14.34.54.5.88.36,1.75-.74,3.72.55,3.72,2.47,0,1.48-1.2,2.68-2.68,2.68h-12.04c-1.48,0-2.68-1.2-2.68-2.68Zm16.73,10.79c-.37,0-.67-.3-.67-.67s.3-.67.67-.67.67.3.67.67-.3.67-.67.67Z"/>
              </g>
              <g>
                <text class="cls-1" transform="translate(655.41 274.57)"><tspan class="cls-51" x="0" y="0">C</tspan><tspan class="cls-22" x="7.06" y="0">L</tspan><tspan class="cls-51" x="12.36" y="0">OUD SUPPO</tspan><tspan class="cls-50" x="74.52" y="0">R</tspan><tspan class="cls-51" x="81.18" y="0">T</tspan></text>
                <text class="cls-4" transform="translate(655.41 285.26)"><tspan class="cls-40" x="0" y="0">L</tspan><tspan class="cls-18" x="4.13" y="0">o</tspan><tspan x="9.07" y="0">r</tspan><tspan class="cls-48" x="11.96" y="0">em ipsum dolor sit </tspan></text>
              </g>
            </g>
          </g>
          <g class="cls-24">
            <circle class="cls-32" cx="724.46" cy="338.79" r="15.61" transform="translate(199.08 941.77) rotate(-74)"/>
            <text class="cls-12" transform="translate(716.4 345.34)"><tspan x="0" y="0">01</tspan></text>
          </g>
        </g>
        <g>
          <g>
            <path class="cls-9" d="m690.38,491.14v6.93c0,2.21,1.79,4,4,4h154.74c2.21,0,4-1.79,4-4v-41.55c0-2.21-1.79-4-4-4h-154.74c-2.21,0-4,1.79-4,4v6.93c0,1.12-.47,2.19-1.3,2.95l-8.67,7.94c-1.73,1.59-1.73,4.32,0,5.9l8.67,7.94c.83.76,1.3,1.83,1.3,2.95Z"/>
            <g>
              <g>
                <rect class="cls-56" x="812.84" y="461.38" width="31.84" height="31.84" rx="5.29" ry="5.29"/>
                <g>
                  <path class="cls-7" d="m839.64,475.31l-2.56-.5c-.17-.56-.39-1.1-.67-1.62l1.42-2.13c.18-.27.14-.62-.08-.84l-1.89-1.89c-.23-.23-.58-.26-.84-.08l-2.13,1.42c-.52-.28-1.06-.5-1.62-.67l-.5-2.56c-.06-.31-.34-.54-.66-.54h-2.68c-.32,0-.59.23-.66.54l-.5,2.56c-.56.17-1.1.39-1.62.67l-2.13-1.42c-.27-.18-.62-.14-.84.08l-1.89,1.89c-.23.23-.26.58-.08.84l1.42,2.13c-.28.52-.5,1.06-.67,1.62l-2.56.5c-.31.06-.54.34-.54.66v2.68c0,.32.23.59.54.66l2.56.5c.17.56.39,1.1.67,1.62l-1.42,2.13c-.18.27-.14.62.08.84l1.89,1.89c.23.23.58.26.84.08l2.13-1.42c.52.28,1.06.5,1.62.67l.5,2.56c.06.31.34.54.66.54h2.68c.32,0,.59-.23.66-.54l.5-2.56c.56-.17,1.1-.39,1.62-.67l2.13,1.42c.27.18.62.14.84-.08l1.89-1.89c.23-.23.26-.58.08-.84l-1.42-2.13c.28-.52.5-1.06.67-1.62l2.56-.5c.31-.06.54-.34.54-.66v-2.68c0-.32-.23-.59-.54-.66Zm-.8,2.78l-2.42.48c-.25.05-.46.24-.52.5-.18.72-.46,1.4-.85,2.04-.13.22-.13.5.02.72l1.35,2.02-1.12,1.12-2.02-1.35c-.22-.14-.5-.15-.72-.02-.63.38-1.32.67-2.04.85-.25.06-.45.27-.5.52l-.48,2.42h-1.58l-.48-2.42c-.05-.26-.24-.46-.5-.52-.72-.18-1.4-.46-2.04-.85-.22-.13-.5-.13-.72.02l-2.02,1.35-1.12-1.12,1.35-2.02c.14-.22.15-.5.02-.72-.38-.63-.67-1.32-.85-2.04-.06-.25-.27-.45-.52-.5l-2.42-.48v-1.58l2.42-.48c.26-.05.46-.24.52-.5.18-.72.46-1.4.85-2.04.13-.22.13-.5-.02-.72l-1.35-2.02,1.12-1.12,2.02,1.35c.22.14.5.15.72.02.63-.38,1.32-.67,2.04-.85.25-.06.45-.27.5-.52l.48-2.42h1.58l.48,2.42c.05.26.24.46.5.52.72.18,1.4.46,2.04.85.22.13.5.13.72-.02l2.02-1.35,1.12,1.12-1.35,2.02c-.14.22-.15.5-.02.72.38.63.67,1.32.85,2.04.06.25.27.45.52.5l2.42.48v1.58Z"/>
                  <path class="cls-7" d="m828.76,471.28c-3.32,0-6.02,2.7-6.02,6.02s2.7,6.02,6.02,6.02,6.02-2.7,6.02-6.02-2.7-6.02-6.02-6.02Zm0,10.7c-2.58,0-4.68-2.1-4.68-4.68s2.1-4.68,4.68-4.68,4.68,2.1,4.68,4.68-2.1,4.68-4.68,4.68Z"/>
                  <path class="cls-7" d="m828.76,473.95c-1.84,0-3.34,1.5-3.34,3.35s1.5,3.35,3.34,3.35,3.35-1.5,3.35-3.35-1.5-3.35-3.35-3.35Zm0,5.35c-1.11,0-2.01-.9-2.01-2.01s.9-2.01,2.01-2.01,2.01.9,2.01,2.01-.9,2.01-2.01,2.01Z"/>
                </g>
              </g>
              <g>
                <text class="cls-1" transform="translate(712.96 482.04)"><tspan class="cls-51" x="0" y="0">USER SUPPO</tspan><tspan class="cls-50" x="64.29" y="0">R</tspan><tspan class="cls-51" x="70.95" y="0">T</tspan></text>
                <text class="cls-4" transform="translate(712.96 492.72)"><tspan class="cls-40" x="0" y="0">L</tspan><tspan class="cls-18" x="4.13" y="0">o</tspan><tspan x="9.07" y="0">r</tspan><tspan class="cls-48" x="11.96" y="0">em ipsum dolor sit </tspan></text>
              </g>
            </g>
          </g>
          <g class="cls-37">
            <circle class="cls-29" cx="652.24" cy="479.31" r="15.61" transform="translate(-147.89 601.59) rotate(-45)"/>
            <text class="cls-12" transform="translate(644.18 485.86)"><tspan x="0" y="0">02</tspan></text>
          </g>
        </g>
        <g>
          <g>
            <path class="cls-13" d="m694.72,630.24v-41.55c0-2.21-1.79-4-4-4h-56.78c-.97,0-1.91-.35-2.64-1l-15.3-13.45c-1.51-1.33-3.77-1.33-5.28,0l-15.3,13.45c-.73.64-1.67,1-2.64,1h-56.78c-2.21,0-4,1.79-4,4v41.55c0,2.21,1.79,4,4,4h154.74c2.21,0,4-1.79,4-4Z"/>
            <g>
              <g>
                <rect class="cls-20" x="644.34" y="593.12" width="31.84" height="31.84" rx="5.29" ry="5.29" transform="translate(1320.52 1218.08) rotate(180)"/>
                <path class="cls-59" d="m648.04,608.28h-.32c-.42,0-.76.34-.76.76s.34.76.76.76h.32l-1,1.93c-.26.51.11,1.11.68,1.11h2.99c.74,2.09,2.1,3.96,3.88,5.3,2,1.51,4.38,2.31,6.89,2.31,6.32,0,11.47-5.12,11.47-11.42s-5.14-11.42-11.47-11.42c-2.51,0-4.89.8-6.89,2.31-1.78,1.35-3.14,3.21-3.88,5.3h-2.99c-.57,0-.94.6-.68,1.11l1,1.93Zm1.71,1.52h2.87l-.76,1.52h-2.9l.79-1.52Zm6.44,0c.37,2.58,2.59,4.57,5.27,4.57,2.94,0,5.33-2.39,5.33-5.33s-2.39-5.33-5.33-5.33c-2.68,0-4.9,1.99-5.27,4.57h-1.53c.38-3.42,3.29-6.09,6.81-6.09,3.78,0,6.85,3.07,6.85,6.85s-3.07,6.85-6.85,6.85c-3.52,0-6.43-2.67-6.81-6.09h1.53Zm3.12,0c.31.89,1.16,1.52,2.15,1.52,1.26,0,2.28-1.02,2.28-2.28s-1.02-2.28-2.28-2.28c-.99,0-1.84.64-2.15,1.52h-1.58c.35-1.74,1.89-3.04,3.73-3.04,2.1,0,3.81,1.71,3.81,3.81s-1.71,3.81-3.81,3.81c-1.84,0-3.38-1.31-3.73-3.04h1.58Zm1.39-.76c0-.42.34-.76.76-.76s.76.34.76.76-.34.76-.76.76-.76-.34-.76-.76Zm.76-9.9c5.48,0,9.95,4.44,9.95,9.9s-4.46,9.9-9.95,9.9c-4,0-7.62-2.46-9.14-6.09h0c.29,0,.55-.16.68-.42l.45-.91c1.06,3.41,4.24,5.9,8,5.9,4.62,0,8.37-3.76,8.37-8.37s-3.76-8.37-8.37-8.37c-3.76,0-6.94,2.48-8,5.9l-.45-.91c-.13-.26-.39-.42-.68-.42h0c1.52-3.63,5.14-6.09,9.14-6.09Zm-9.6,7.61l.76,1.52h-2.87l-.79-1.52h2.9Z"/>
              </g>
              <g>
                <text class="cls-3" transform="translate(549.54 608.41) scale(.98 1)"><tspan class="cls-54" x="0" y="0">S</tspan><tspan class="cls-38" x="6.13" y="0">E</tspan><tspan class="cls-54" x="12.44" y="0">T G</tspan><tspan class="cls-16" x="29.31" y="0">O</tspan><tspan class="cls-41" x="37.66" y="0">ALS</tspan></text>
                <text class="cls-2" transform="translate(549.54 619.3) scale(.98 1)"><tspan class="cls-17" x="0" y="0">L</tspan><tspan class="cls-53" x="4.21" y="0">o</tspan><tspan x="9.24" y="0">r</tspan><tspan class="cls-46" x="12.18" y="0">em ipsum dolor sit </tspan></text>
              </g>
            </g>
          </g>
          <g class="cls-6">
            <circle class="cls-31" cx="613.35" cy="543.92" r="15.61"/>
            <text class="cls-12" transform="translate(605.29 550.47)"><tspan x="0" y="0">03</tspan></text>
          </g>
        </g>
        <g>
          <g>
            <path class="cls-11" d="m377.1,277.78v41.55c0,2.21,1.79,4,4,4h56.78c.97,0,1.91.35,2.64,1l15.31,13.45c1.51,1.33,3.77,1.33,5.28,0l15.3-13.45c.73-.64,1.67-1,2.64-1h56.78c2.21,0,4-1.79,4-4v-41.55c0-2.21-1.79-4-4-4h-154.74c-2.21,0-4,1.79-4,4Z"/>
            <g>
              <g>
                <rect class="cls-57" x="492.55" y="284.56" width="31.84" height="31.84" rx="5.29" ry="5.29"/>
                <g>
                  <path class="cls-59" d="m508.47,290.93c-3.64,0-6.61,2.94-6.61,6.61s2.96,6.61,6.61,6.61,6.61-2.94,6.61-6.61-2.96-6.61-6.61-6.61Zm0,11.75c-.1,0-.49-.23-.87-1.24-.11-.29-.21-.62-.29-.96h2.31c-.08.34-.18.67-.29.96-.38,1.02-.77,1.24-.87,1.24Zm-1.4-3.66c-.05-.47-.07-.96-.07-1.47s.03-1,.07-1.47h2.79c.05.47.07.96.07,1.47s-.03,1-.07,1.47h-2.79Zm-3.53-2.95h2.06c-.04.48-.07.98-.07,1.48s.02.99.07,1.47h-2.06c-.28-.96-.28-1.99,0-2.95Zm4.93-3.66c.1,0,.49.23.87,1.24.11.29.21.62.29.96h-2.31c.08-.34.18-.67.29-.96.38-1.02.77-1.24.87-1.24Zm2.87,3.67h2.06c.28.96.28,1.98,0,2.94h-2.06c.04-.48.07-.97.07-1.47s-.02-.99-.07-1.47Zm1.35-1.47h-1.56c-.12-.59-.29-1.18-.52-1.74.55.25,1.06.6,1.5,1.04.22.22.41.45.59.7Zm-6.36-1.74c-.23.56-.4,1.15-.52,1.74h-1.56c.17-.25.37-.48.58-.7.44-.44.95-.79,1.5-1.04Zm-2.08,7.62h1.56c.12.59.29,1.18.52,1.74-.55-.25-1.06-.6-1.5-1.04-.22-.22-.41-.45-.59-.7Zm6.36,1.73c.23-.56.4-1.15.52-1.74h1.56c-.17.25-.37.48-.58.7-.44.44-.95.79-1.5,1.04Z"/>
                  <path class="cls-59" d="m508.47,287.94c-5.27,0-9.55,4.31-9.55,9.6,0,2.13.68,4.14,1.98,5.82l6.11,8.19h-4.41c-.41,0-.73.33-.73.73s.33.73.73.73h11.76c.41,0,.73-.33.73-.73s-.33-.73-.73-.73h-4.41l6.25-8.37s0,0,0,0c1.2-1.64,1.83-3.59,1.83-5.63,0-5.29-4.29-9.6-9.55-9.6Zm6.53,14.36l-6.53,8.76s-6.41-8.59-6.41-8.59c-1.09-1.42-1.67-3.13-1.67-4.93,0-4.48,3.63-8.13,8.08-8.13s8.08,3.65,8.08,8.13c0,1.73-.54,3.37-1.55,4.76Z"/>
                </g>
              </g>
              <g>
                <text class="cls-1" transform="translate(391.27 300.93)"><tspan class="cls-51" x="0" y="0">S</tspan><tspan class="cls-55" x="6.02" y="0">E</tspan><tspan class="cls-51" x="12.21" y="0">T </tspan><tspan class="cls-22" x="20.93" y="0">L</tspan><tspan class="cls-51" x="26.23" y="0">O</tspan><tspan class="cls-49" x="34.59" y="0">C</tspan><tspan class="cls-45" x="41.7" y="0">A</tspan><tspan class="cls-51" x="48.22" y="0">TION</tspan></text>
                <text class="cls-4" transform="translate(391.27 311.62)"><tspan class="cls-40" x="0" y="0">L</tspan><tspan class="cls-18" x="4.13" y="0">o</tspan><tspan x="9.07" y="0">r</tspan><tspan class="cls-48" x="11.96" y="0">em ipsum dolor sit </tspan></text>
              </g>
            </g>
          </g>
          <g class="cls-47">
            <circle class="cls-34" cx="458.47" cy="364.14" r="15.61" transform="translate(27.51 760.45) rotate(-81.06)"/>
            <text class="cls-12" transform="translate(450.42 370.69)"><tspan x="0" y="0">05</tspan></text>
          </g>
        </g>
        <g>
          <g>
            <path class="cls-15" d="m272.04,368.14v41.55c0,2.21,1.79,4,4,4h56.78c.97,0,1.91.35,2.64,1l15.31,13.45c1.51,1.33,3.77,1.33,5.28,0l15.31-13.45c.73-.64,1.67-1,2.64-1h56.78c2.21,0,4-1.79,4-4v-41.55c0-2.21-1.79-4-4-4h-154.74c-2.21,0-4,1.79-4,4Z"/>
            <g>
              <g>
                <rect class="cls-28" x="390.29" y="371.84" width="31.84" height="31.84" rx="5.29" ry="5.29"/>
                <g>
                  <path class="cls-7" d="m401.92,392.27h0s0,0,0,0h12.82c.32,0,.59-.21.68-.51l2.83-9.9c.06-.21.02-.44-.12-.62-.13-.18-.34-.28-.56-.28h-17.28l-.51-2.27c-.07-.32-.36-.55-.69-.55h-4.24c-.39,0-.71.32-.71.71s.32.71.71.71h3.67c.09.4,2.42,10.88,2.55,11.49-.75.33-1.28,1.08-1.28,1.95,0,1.17.95,2.12,2.12,2.12h12.82c.39,0,.71-.32.71-.71s-.32-.71-.71-.71h-12.82c-.39,0-.71-.32-.71-.71s.32-.71.71-.71Zm14.71-9.9l-2.42,8.48h-11.72l-1.89-8.48h16.03Z"/>
                  <path class="cls-7" d="m401.22,397.22c0,1.17.95,2.12,2.12,2.12s2.12-.95,2.12-2.12-.95-2.12-2.12-2.12-2.12.95-2.12,2.12Zm2.12-.71c.39,0,.71.32.71.71s-.32.71-.71.71-.71-.32-.71-.71.32-.71.71-.71Z"/>
                  <path class="cls-7" d="m411.21,397.22c0,1.17.95,2.12,2.12,2.12s2.12-.95,2.12-2.12-.95-2.12-2.12-2.12-2.12.95-2.12,2.12Zm2.12-.71c.39,0,.71.32.71.71s-.32.71-.71.71-.71-.32-.71-.71.32-.71.71-.71Z"/>
                </g>
              </g>
              <g>
                <text class="cls-1" transform="translate(285.98 389.76)"><tspan class="cls-51" x="0" y="0">DEFINE </tspan><tspan x="39.66" y="0">M</tspan><tspan class="cls-51" x="49.28" y="0">ARK</tspan><tspan class="cls-55" x="69.88" y="0">E</tspan><tspan class="cls-51" x="76.07" y="0">T</tspan></text>
                <text class="cls-4" transform="translate(285.98 400.45)"><tspan class="cls-40" x="0" y="0">L</tspan><tspan class="cls-18" x="4.13" y="0">o</tspan><tspan x="9.07" y="0">r</tspan><tspan class="cls-48" x="11.96" y="0">em ipsum dolor sit </tspan></text>
              </g>
            </g>
          </g>
          <g class="cls-26">
            <circle class="cls-30" cx="353.49" cy="454.5" r="15.61"/>
            <text class="cls-12" transform="translate(345.43 461.05)"><tspan x="0" y="0">06</tspan></text>
          </g>
        </g>
        <g>
          <g>
            <path class="cls-14" d="m568.95,558.05v-41.55c0-2.21-1.79-4-4-4h-56.78c-.97,0-1.91-.35-2.64-1l-15.3-13.45c-1.51-1.33-3.77-1.33-5.28,0l-15.3,13.45c-.73.64-1.67,1-2.64,1h-56.78c-2.21,0-4,1.79-4,4v41.55c0,2.21,1.79,4,4,4h154.74c2.21,0,4-1.79,4-4Z"/>
            <g>
              <g>
                <rect class="cls-58" x="524.16" y="522.66" width="31.84" height="31.84" rx="5.29" ry="5.29"/>
                <g>
                  <path class="cls-59" d="m551.42,538.97c.17-.24.17-.55,0-.79-1.39-1.92-4.08-4.53-6.85-5.88-1.52-.74-3.03-1.12-4.49-1.12s-2.97.38-4.49,1.12c-2.74,1.34-5.45,3.94-6.85,5.88-.17.23-.17.55,0,.79,1.39,1.92,4.08,4.53,6.85,5.88,1.52.74,3.03,1.12,4.49,1.12,3,0,5.8-1.58,8.06-3.52,1.99-1.71,3.23-3.4,3.28-3.48Zm-11.34,5.65c-3.8,0-7.59-3.11-9.95-6.05,1.13-1.4,5.22-6.05,9.95-6.05,3.8,0,7.58,3.11,9.95,6.05-1.13,1.4-5.22,6.05-9.95,6.05Z"/>
                  <path class="cls-59" d="m540.08,533.87c-2.59,0-4.7,2.11-4.7,4.7s2.11,4.7,4.7,4.7,4.7-2.11,4.7-4.7-2.11-4.7-4.7-4.7Zm0,8.06c-1.85,0-3.36-1.51-3.36-3.36s1.51-3.36,3.36-3.36,3.36,1.51,3.36,3.36-1.51,3.36-3.36,3.36Z"/>
                  <path class="cls-59" d="m540.08,536.56c-1.11,0-2.02.9-2.02,2.02s.9,2.02,2.02,2.02,2.02-.9,2.02-2.02-.9-2.02-2.02-2.02Zm0,2.69c-.37,0-.67-.3-.67-.67s.3-.67.67-.67.67.3.67.67-.3.67-.67.67Z"/>
                  <path class="cls-59" d="m550.88,546.01c-.37,0-.67.3-.67.67v1.07l-1.54-1.54c-.26-.26-.69-.26-.95,0-.26.26-.26.69,0,.95l1.54,1.54h-1.07c-.37,0-.67.3-.67.67s.3.67.67.67h2.69c.34,0,.64-.26.67-.61,0-.02,0-.04,0-.06,0,0,0,0,0,0v-2.69c0-.37-.3-.67-.67-.67Z"/>
                  <path class="cls-59" d="m548.19,528.45h1.07l-1.54,1.54c-.26.26-.26.69,0,.95.13.13.3.2.48.2s.34-.07.48-.2l1.54-1.54v1.07c0,.37.3.67.67.67s.67-.3.67-.67v-2.69s0,0,0,0c0-.34-.26-.63-.61-.67-.02,0-.04,0-.07,0h-2.69c-.37,0-.67.3-.67.67s.3.67.67.67Z"/>
                  <path class="cls-59" d="m531.98,548.7h-1.07l1.54-1.54c.26-.26.26-.69,0-.95-.26-.26-.69-.26-.95,0l-1.54,1.54v-1.07c0-.37-.3-.67-.67-.67s-.67.3-.67.67v2.69s0,0,0,0c0,.37.31.67.67.67h2.69c.37,0,.67-.3.67-.67s-.3-.67-.67-.67Z"/>
                  <path class="cls-59" d="m529.29,531.14c.37,0,.67-.3.67-.67v-1.07l1.54,1.54c.26.26.69.26.95,0,.26-.26.26-.69,0-.95l-1.54-1.54h1.07c.37,0,.67-.3.67-.67s-.3-.67-.67-.67h-2.69c-.37,0-.67.3-.67.67,0,0,0,0,0,0v2.69c0,.37.3.67.67.67Z"/>
                </g>
              </g>
              <g>
                <text class="cls-1" transform="translate(422.13 539.28)"><tspan class="cls-51" x="0" y="0">EXP</tspan><tspan class="cls-36" x="19.44" y="0">L</tspan><tspan class="cls-51" x="24.74" y="0">ORE</tspan></text>
                <text class="cls-4" transform="translate(422.13 549.97)"><tspan class="cls-40" x="0" y="0">L</tspan><tspan class="cls-18" x="4.13" y="0">o</tspan><tspan x="9.07" y="0">r</tspan><tspan class="cls-48" x="11.96" y="0">em ipsum dolor sit </tspan></text>
              </g>
            </g>
          </g>
          <g class="cls-52">
            <circle class="cls-35" cx="487.58" cy="470.57" r="15.61"/>
            <text class="cls-12" transform="translate(479.53 477.13)"><tspan x="0" y="0">04</tspan></text>
          </g>
        </g>
        <g>
          <g>
            <path class="cls-8" d="m285.98,519.08v-41.55c0-2.21-1.79-4-4-4h-56.78c-.97,0-1.91-.35-2.64-1l-15.3-13.45c-1.51-1.33-3.77-1.33-5.28,0l-15.3,13.45c-.73.64-1.67,1-2.64,1h-56.78c-2.21,0-4,1.79-4,4v41.55c0,2.21,1.79,4,4,4h154.74c2.21,0,4-1.79,4-4Z"/>
            <g>
              <g>
                <rect class="cls-19" x="244.05" y="482.38" width="31.84" height="31.84" rx="5.29" ry="5.29" transform="translate(519.95 996.6) rotate(180)"/>
                <path class="cls-59" d="m247.76,497.54h-.32c-.42,0-.76.34-.76.76s.34.76.76.76h.32l-1,1.93c-.26.51.11,1.11.68,1.11h2.99c.74,2.09,2.1,3.96,3.88,5.3,2,1.51,4.38,2.31,6.89,2.31,6.32,0,11.47-5.12,11.47-11.42s-5.14-11.42-11.47-11.42c-2.51,0-4.89.8-6.89,2.31-1.78,1.35-3.14,3.21-3.88,5.3h-2.99c-.57,0-.94.6-.68,1.11l1,1.93Zm1.71,1.52h2.87l-.76,1.52h-2.9l.79-1.52Zm6.44,0c.37,2.58,2.59,4.57,5.27,4.57,2.94,0,5.33-2.39,5.33-5.33s-2.39-5.33-5.33-5.33c-2.68,0-4.9,1.99-5.27,4.57h-1.53c.38-3.42,3.29-6.09,6.81-6.09,3.78,0,6.85,3.07,6.85,6.85s-3.07,6.85-6.85,6.85c-3.52,0-6.43-2.67-6.81-6.09h1.53Zm3.12,0c.31.89,1.16,1.52,2.15,1.52,1.26,0,2.28-1.02,2.28-2.28s-1.02-2.28-2.28-2.28c-.99,0-1.84.64-2.15,1.52h-1.58c.35-1.74,1.89-3.04,3.73-3.04,2.1,0,3.81,1.71,3.81,3.81s-1.71,3.81-3.81,3.81c-1.84,0-3.38-1.31-3.73-3.04h1.58Zm1.39-.76c0-.42.34-.76.76-.76s.76.34.76.76-.34.76-.76.76-.76-.34-.76-.76Zm.76-9.9c5.48,0,9.95,4.44,9.95,9.9s-4.46,9.9-9.95,9.9c-4,0-7.62-2.46-9.14-6.09h0c.29,0,.55-.16.68-.42l.45-.91c1.06,3.41,4.24,5.9,8,5.9,4.62,0,8.37-3.76,8.37-8.37s-3.76-8.37-8.37-8.37c-3.76,0-6.94,2.48-8,5.9l-.45-.91c-.13-.26-.39-.42-.68-.42h0c1.52-3.63,5.14-6.09,9.14-6.09Zm-9.6,7.61l.76,1.52h-2.87l-.79-1.52h2.9Z"/>
              </g>
              <g>
                <text class="cls-1" transform="translate(151.81 495.98)"><tspan class="cls-51" x="0" y="0">S</tspan><tspan class="cls-55" x="6.02" y="0">E</tspan><tspan class="cls-51" x="12.21" y="0">T G</tspan><tspan class="cls-43" x="28.78" y="0">O</tspan><tspan class="cls-39" x="36.97" y="0">ALS</tspan></text>
                <text class="cls-4" transform="translate(151.81 506.67)"><tspan class="cls-40" x="0" y="0">L</tspan><tspan class="cls-18" x="4.13" y="0">o</tspan><tspan x="9.07" y="0">r</tspan><tspan class="cls-48" x="11.96" y="0">em ipsum dolor sit </tspan></text>
              </g>
            </g>
          </g>
          <g class="cls-23">
            <circle class="cls-33" cx="204.6" cy="432.76" r="15.61"/>
            <text class="cls-12" transform="translate(196.55 439.31)"><tspan x="0" y="0">07</tspan></text>
          </g>
        </g>
      </g>
    </g>
  </g>
</svg>